Coordinates
version=1
nRows=8
nColumns=40
inDegrees=yes

Units are S.I. units (second, meters, Newtons, ...)
If the header above contains a line with 'inDegrees', this indicates whether rotational values are in degrees (yes) or radians (no).

endheader
time	pelvis_tilt	pelvis_list	pelvis_rotation	pelvis_tx	pelvis_ty	pelvis_tz	hip_flexion_r	hip_adduction_r	hip_rotation_r	knee_angle_r	knee_angle_r_beta	ankle_angle_r	subtalar_angle_r	mtp_angle_r	hip_flexion_l	hip_adduction_l	hip_rotation_l	knee_angle_l	knee_angle_l_beta	ankle_angle_l	subtalar_angle_l	mtp_angle_l	lumbar_extension	lumbar_bending	lumbar_rotation	arm_flex_r	arm_add_r	arm_rot_r	elbow_flex_r	pro_sup_r	wrist_flex_r	wrist_dev_r	arm_flex_l	arm_add_l	arm_rot_l	elbow_flex_l	pro_sup_l	wrist_flex_l	wrist_dev_l
      0.00000000	      7.98995312	     12.03105615	    -70.97606852	      0.16745452	      1.06970783	      0.01318902	     40.83439977	    -14.82818551	      5.68729893	     50.76857195	      0.88607874	     10.54491171	      0.00000000	      0.00000000	      7.09090338	      8.97860202	      2.08347381	     15.32314360	      0.26743931	     17.57629295	      0.00000000	      0.00000000	    -10.27600561	     -4.78440667	     10.68508512	     13.40848671	    -19.54245815	     48.18767146	     87.12219539	     67.92265424	      0.00000000	      0.00000000	     22.86635406	    -11.51106837	     64.28694505	     75.23348378	     37.87786156	      0.00000000	      0.00000000
      0.00277778	      8.02136668	     12.02667386	    -71.05009779	      0.16758794	      1.06978890	      0.01289745	     40.63397366	    -14.81151209	      5.62529293	     50.51205040	      0.88160159	     10.52191281	      0.00000000	      0.00000000	      7.05966987	      9.01062899	      1.88948755	     15.25946245	      0.26632786	     17.51547293	      0.00000000	      0.00000000	    -10.27068666	     -4.80153533	     10.64593761	     13.47069401	    -19.51996434	     48.23962298	     86.99575283	     68.25241048	      0.00000000	      0.00000000	     22.77446333	    -11.54725418	     64.16781511	     75.34855133	     37.67819959	      0.00000000	      0.00000000
      0.00555556	      8.03427459	     11.24877825	    -70.97575616	      0.16804830	      1.07135472	      0.01322730	     39.25924565	    -14.70866207	      5.04229387	     49.87630462	      0.87050573	     10.83487009	      0.00000000	      0.00000000	      6.06300074	      8.79372983	      2.01799840	     14.93687587	      0.26069766	     17.45639792	      0.00000000	      0.00000000	    -11.05037112	     -4.48650872	     10.61591907	     13.34698589	    -19.59794810	     47.89407997	     87.04388447	     69.18922871	      0.00000000	      0.00000000	     22.82802985	    -11.45520732	     64.24964745	     75.24297260	     37.72414779	      0.00000000	      0.00000000
      0.00833333	      8.16065423	     11.76236064	    -70.87370653	      0.16877628	      1.07059653	      0.01222149	     39.56938509	    -15.12697515	      4.79975417	     49.63600066	      0.86631164	     11.37961523	      0.00000000	      0.00000000	      6.57673868	      9.17128668	      2.21908523	     14.94403043	      0.26082253	     17.32399980	      0.00000000	      0.00000000	    -10.55016714	     -4.73409882	     10.39219629	     13.22553321	    -19.55899602	     47.88713375	     87.14327128	     68.38296662	      0.00000000	      0.00000000	     22.77633277	    -11.52023822	     64.29147572	     75.23302045	     37.92787902	      0.00000000	      0.00000000
      0.01111111	      8.18620224	      9.91126198	    -70.97359391	      0.16887643	      1.07389802	      0.01408385	     36.81749817	    -14.61841220	      3.94025164	     48.65945368	      0.84926768	     12.00262592	      0.00000000	      0.00000000	      4.20690067	      8.53692739	      2.18230254	     14.21820289	      0.24815445	     17.24808649	      0.00000000	      0.00000000	    -12.35799278	     -4.08385315	     10.52991291	     13.26276164	    -19.68132524	     47.66251612	     87.11289405	     69.65322428	      0.00000000	      0.00000000	     22.76206588	    -11.42935096	     64.18699790	     75.28337309	     37.74681221	      0.00000000	      0.00000000
      0.01388889	      8.30305862	     10.54971499	    -70.81841775	      0.16962556	      1.07294531	      0.01305137	     37.33123720	    -15.10600611	      3.72573594	     48.46524866	      0.84587816	     12.25596338	      0.00000000	      0.00000000	      4.89544848	      8.94862421	      2.39913525	     14.31209307	      0.24979315	     17.15026943	      0.00000000	      0.00000000	    -11.74752419	     -4.36348187	     10.28523041	     13.12739939	    -19.65204403	     47.68237261	     87.25190891	     68.64314568	      0.00000000	      0.00000000	     22.74504585	    -11.46114051	     64.27775319	     75.22330688	     37.92295066	      0.00000000	      0.00000000
      0.01666667	      8.36097021	      8.78960708	    -70.91130888	      0.16982508	      1.07605073	      0.01485881	     34.66783247	    -14.65591006	      2.87942287	     47.43077028	      0.82782311	     12.75763767	      0.00000000	      0.00000000	      2.64727440	      8.38193125	      2.30900158	     13.67299219	      0.23863873	     17.10210147	      0.00000000	      0.00000000	    -13.46772362	     -3.77518471	     10.38894023	     13.14905456	    -19.79301582	     47.52490979	     87.34010686	     69.60555872	      0.00000000	      0.00000000	     22.69876321	    -11.40519253	     64.12427822	     75.34768714	     37.74227571	      0.00000000	      0.00000000
      0.01944444	      8.44786882	      7.97684838	    -70.81103944	      0.17047519	      1.07760867	      0.01549314	     33.18006323	    -14.64709628	      2.15157621	     46.63869207	      0.81399874	     13.08198785	      0.00000000	      0.00000000	      1.50880136	      8.21775884	      2.48834068	     13.23801689	      0.23104698	     16.96651115	      0.00000000	      0.00000000	    -14.26030524	     -3.50963360	     10.25079307	     13.08726892	    -19.85662700	     47.47257741	     87.50811495	     69.30012155	      0.00000000	      0.00000000	     22.64679656	    -11.38758178	     64.05921977	     75.36041460	     37.83473633	      0.00000000	      0.00000000
